<?xml version="1.0" standalone="no"?>
<!DOCTYPE svg PUBLIC "-//W3C//DTD SVG 20010904//EN"
 "http://www.w3.org/TR/2001/REC-SVG-20010904/DTD/svg10.dtd">
<svg version="1.0" xmlns="http://www.w3.org/2000/svg"
 width="260.000000pt" height="260.000000pt" viewBox="0 0 260.000000 260.000000"
 preserveAspectRatio="xMidYMid meet">
<metadata>
Created by potrace 1.11, written by Peter Selinger 2001-2013
</metadata>
<g transform="translate(0.000000,260.000000) scale(0.100000,-0.100000)"
fill="#000000" stroke="none">
<path d="M0 1300 l0 -1300 1300 0 1300 0 0 1300 0 1300 -1300 0 -1300 0 0
-1300z m1480 806 c191 -29 334 -92 419 -184 69 -74 86 -120 86 -232 0 -87 -3
-101 -33 -164 -23 -49 -52 -89 -100 -136 -147 -144 -448 -246 -787 -265 -179
-11 -152 17 -233 -228 -39 -117 -81 -251 -93 -297 -27 -108 -35 -122 -62 -118
-18 2 -23 11 -25 42 -5 56 22 202 74 405 24 96 44 175 44 176 0 1 -32 5 -71 7
-65 5 -101 19 -87 34 4 3 42 8 86 11 44 3 85 9 91 12 6 4 26 63 45 132 60 216
144 446 213 583 42 85 134 217 157 226 33 14 172 11 276 -4z"/>
<path d="M1210 1948 c-49 -78 -148 -300 -231 -521 -53 -142 -61 -170 -49 -178
20 -14 251 -3 359 16 270 48 468 148 559 284 49 73 59 117 42 174 -50 168
-276 287 -545 287 l-96 0 -39 -62z"/>
</g>
</svg>
